<svg id="svg" version="1.1" xmlns="http://www.w3.org/2000/svg" xmlns:xlink="http://www.w3.org/1999/xlink" width="400" height="400" viewBox="0, 0, 400,400"><g id="svgg"><path id="path0" d="M186.800 123.046 C 184.930 123.118,179.890 123.366,175.600 123.596 C 154.512 124.726,143.337 125.833,125.000 128.606 C 98.818 132.565,85.723 142.584,82.985 160.753 C 82.259 165.568,82.260 168.337,82.994 181.800 C 83.317 187.740,83.682 194.760,83.803 197.400 C 84.220 206.492,85.844 230.890,86.407 236.542 C 86.623 238.711,86.800 240.691,86.799 240.942 C 86.799 241.261,85.194 241.408,81.499 241.427 C 51.894 241.579,33.799 274.878,49.893 299.591 C 58.736 313.171,73.799 319.405,90.900 316.562 L 92.400 316.312 92.400 318.194 C 92.400 320.749,95.175 352.319,96.602 366.000 C 97.974 379.150,100.000 399.168,100.000 399.570 C 100.000 399.847,101.355 400.000,103.800 400.000 C 106.573 400.000,107.600 399.865,107.600 399.500 C 107.600 399.225,106.796 390.990,105.814 381.200 C 101.034 333.555,99.375 313.121,100.246 312.600 C 109.978 306.777,114.639 299.992,110.410 297.805 C 108.197 296.661,107.337 296.979,104.054 300.156 C 91.151 312.644,72.849 312.838,60.566 300.616 C 39.687 279.841,57.853 244.744,87.067 249.414 C 95.534 250.768,95.261 251.425,93.861 233.047 C 91.640 203.865,89.813 170.534,90.155 165.400 C 91.077 151.535,97.948 143.680,113.200 139.054 C 124.087 135.752,147.338 132.811,176.000 131.110 C 194.749 129.998,248.013 130.517,269.800 132.025 C 293.873 133.691,303.165 141.440,307.594 163.545 C 315.140 201.207,323.168 317.576,323.196 389.700 L 323.200 400.000 327.400 400.000 L 331.600 400.000 331.595 394.700 C 331.581 378.716,330.617 344.416,329.384 316.000 C 328.619 298.384,326.662 263.471,325.807 252.200 C 325.690 250.660,325.240 244.810,324.807 239.200 C 324.374 233.590,323.925 227.740,323.809 226.200 C 323.609 223.534,323.465 221.926,323.025 217.400 C 322.919 216.300,322.634 213.330,322.392 210.800 C 321.617 202.672,318.669 179.163,317.752 173.800 C 315.820 162.497,315.171 158.980,314.618 156.800 C 309.667 137.279,298.238 127.617,277.000 124.995 C 265.283 123.549,206.589 122.280,186.800 123.046 M184.542 205.616 C 176.127 207.281,171.286 216.756,174.890 224.508 C 181.032 237.719,200.883 233.394,200.958 218.828 C 201.002 210.225,193.157 203.911,184.542 205.616 M342.125 206.003 C 335.631 208.130,331.499 215.611,333.164 222.225 C 335.981 233.412,350.997 236.468,357.775 227.233 C 365.825 216.268,355.121 201.748,342.125 206.003 M262.780 239.210 C 229.447 242.244,208.936 277.880,235.515 286.582 C 237.610 287.268,237.646 287.308,239.466 290.931 C 241.186 294.357,243.423 297.862,246.491 301.939 C 248.843 305.065,248.501 308.664,245.154 316.000 C 238.391 330.823,238.670 340.849,246.230 354.716 C 250.051 361.722,250.437 368.015,247.537 375.989 C 243.329 387.561,242.188 391.738,241.714 397.300 L 241.484 400.000 245.295 400.000 L 249.107 400.000 249.394 397.300 C 249.823 393.269,251.376 387.552,253.413 382.512 C 258.480 369.974,258.302 363.068,252.606 351.200 C 246.492 338.461,246.414 332.327,252.199 319.173 C 257.268 307.645,257.207 304.077,251.817 297.039 C 242.290 284.599,240.314 273.638,246.166 265.689 C 251.767 258.081,270.420 256.079,284.635 261.560 L 287.845 262.798 287.105 266.299 C 285.428 274.229,286.529 282.221,290.675 292.200 C 297.161 307.812,297.768 314.089,293.788 324.381 C 289.357 335.838,289.553 341.034,294.855 352.747 C 301.254 366.883,300.800 380.259,293.348 397.150 C 292.048 400.097,291.953 400.000,296.158 400.000 L 299.917 400.000 301.598 395.300 C 307.945 377.559,308.001 365.669,301.800 352.000 C 296.486 340.289,296.361 337.734,300.542 326.342 C 304.683 315.060,304.165 307.798,298.170 293.096 C 295.934 287.614,293.372 280.008,293.695 279.813 C 309.509 270.315,307.081 251.712,288.966 243.585 C 281.145 240.076,271.315 238.434,262.780 239.210 M68.182 268.582 C 66.026 270.738,67.233 273.973,70.502 274.799 C 78.123 276.724,82.036 281.177,82.667 288.641 C 82.955 292.044,84.145 293.600,86.461 293.600 C 92.040 293.600,90.866 281.453,84.615 274.501 C 79.735 269.073,70.880 265.884,68.182 268.582 " stroke="none" fill="#060505" fill-rule="evenodd"></path><path id="path1" d="M197.200 130.671 C 163.480 131.271,127.188 135.044,112.935 139.431 C 100.766 143.177,93.999 149.201,91.400 158.600 C 89.799 164.391,90.797 191.069,94.228 234.212 C 95.563 250.994,95.457 251.252,87.792 249.809 C 61.871 244.930,42.619 272.989,56.551 295.342 C 66.812 311.805,90.126 314.028,103.973 299.863 C 107.349 296.410,109.318 296.043,111.562 298.451 C 114.068 301.141,110.719 305.922,102.583 311.271 C 100.624 312.560,100.000 313.196,100.000 313.907 C 100.000 315.146,102.213 341.147,103.225 351.800 C 104.799 368.371,107.608 396.633,107.848 398.305 L 108.092 400.010 122.146 399.905 C 131.231 399.837,136.178 399.659,136.138 399.400 C 136.004 398.531,133.533 374.450,132.649 365.400 C 131.784 356.547,131.761 355.738,132.356 355.007 C 132.959 354.264,132.955 354.248,132.300 354.756 C 131.690 355.229,131.600 355.202,131.599 354.549 C 131.598 354.137,131.330 351.010,131.004 347.600 C 130.282 340.047,126.930 301.448,126.610 297.000 C 126.483 295.240,126.132 290.830,125.828 287.200 C 125.525 283.570,125.267 280.330,125.254 280.000 C 125.242 279.670,124.143 265.720,122.813 249.000 C 121.482 232.280,120.430 217.965,120.475 217.189 C 120.520 216.413,120.448 215.601,120.314 215.385 C 120.181 215.169,119.954 212.654,119.811 209.796 C 119.668 206.938,119.288 201.540,118.967 197.800 C 116.786 172.421,119.409 165.112,132.314 160.603 C 141.037 157.555,166.387 154.468,194.134 153.073 C 197.023 152.928,197.295 152.982,197.609 153.758 L 197.949 154.600 197.975 153.746 C 198.049 151.226,260.632 152.450,275.000 155.252 C 289.608 158.101,296.589 164.578,298.227 176.800 C 298.331 177.570,298.587 179.307,298.797 180.660 C 299.587 185.756,301.291 205.067,302.781 225.800 C 304.156 244.922,304.137 244.532,303.679 244.249 C 303.446 244.105,303.526 244.530,303.857 245.193 C 304.289 246.061,304.422 247.357,304.329 249.801 C 304.258 251.672,304.308 253.247,304.439 253.301 C 304.687 253.403,305.825 273.050,307.212 301.175 C 308.119 319.580,308.100 319.053,308.157 326.700 C 308.181 329.835,308.304 332.400,308.431 332.400 C 308.752 332.400,310.379 378.993,310.392 388.549 C 310.400 393.772,310.359 394.066,309.700 393.561 C 309.315 393.266,309.405 393.480,309.900 394.038 C 310.627 394.857,310.800 395.527,310.800 397.526 L 310.800 400.000 316.983 400.000 L 323.167 400.000 322.989 396.100 C 322.892 393.955,322.722 384.280,322.611 374.600 C 322.012 322.062,317.443 242.455,312.579 199.800 C 305.679 139.283,301.578 133.856,261.200 131.802 C 239.488 130.698,217.522 130.309,197.200 130.671 M300.000 240.125 C 300.000 240.194,300.585 240.779,301.300 241.425 L 302.600 242.600 301.425 241.300 C 300.330 240.088,300.000 239.816,300.000 240.125 M265.000 259.438 C 253.597 265.240,253.636 282.939,265.085 297.938 C 269.652 303.922,269.734 307.940,265.484 317.600 C 258.942 332.468,258.935 338.001,265.437 351.601 C 270.804 362.826,271.030 370.854,266.295 382.000 C 263.658 388.207,261.927 395.031,262.046 398.752 C 262.073 399.586,262.399 398.418,262.814 396.000 C 263.761 390.496,264.940 386.078,266.035 383.932 C 267.777 380.520,269.625 374.248,270.082 370.200 C 270.854 363.359,269.958 359.565,265.347 350.135 C 259.959 339.117,259.846 331.450,264.908 320.400 C 268.650 312.230,268.978 311.163,268.974 307.200 C 268.970 303.123,268.072 300.851,264.738 296.474 C 252.739 280.725,255.185 260.958,269.400 258.803 L 271.400 258.500 269.200 258.460 C 267.577 258.431,266.475 258.688,265.000 259.438 M272.500 259.076 C 272.885 259.176,273.515 259.176,273.900 259.076 C 274.285 258.975,273.970 258.893,273.200 258.893 C 272.430 258.893,272.115 258.975,272.500 259.076 M275.400 259.600 C 276.501 260.073,276.892 260.073,276.600 259.600 C 276.464 259.380,275.958 259.213,275.476 259.228 C 274.631 259.255,274.629 259.269,275.400 259.600 M74.200 267.762 C 84.360 270.568,93.097 283.523,90.058 291.279 C 88.152 296.145,82.730 294.043,82.294 288.268 C 81.776 281.424,76.181 275.200,70.545 275.200 C 69.152 275.200,66.800 272.822,66.800 271.414 C 66.800 267.883,69.613 266.495,74.200 267.762 M270.937 276.200 C 270.939 277.960,271.009 278.630,271.093 277.689 C 271.178 276.749,271.177 275.309,271.091 274.489 C 271.005 273.670,270.936 274.440,270.937 276.200 M283.309 366.800 C 283.309 367.790,283.387 368.195,283.482 367.700 C 283.578 367.205,283.578 366.395,283.482 365.900 C 283.387 365.405,283.309 365.810,283.309 366.800 " stroke="none" fill="#f9cd99" fill-rule="evenodd"></path><path id="path2" d="M267.900 124.282 C 268.395 124.378,269.205 124.378,269.700 124.282 C 270.195 124.187,269.790 124.109,268.800 124.109 C 267.810 124.109,267.405 124.187,267.900 124.282 M91.375 142.500 L 90.200 143.800 91.500 142.625 C 92.712 141.530,92.984 141.200,92.675 141.200 C 92.606 141.200,92.021 141.785,91.375 142.500 M203.500 152.667 L 198.000 152.823 198.000 153.955 C 198.000 157.952,202.018 160.519,209.637 161.392 C 238.190 164.663,274.272 170.723,272.928 172.020 C 271.401 173.496,238.433 179.002,213.200 181.995 C 161.013 188.186,135.627 193.805,123.542 201.839 C 119.554 204.489,119.519 204.570,119.846 210.359 L 120.121 215.216 121.608 216.560 C 129.747 223.913,154.826 230.671,192.200 235.583 C 195.720 236.045,199.680 236.598,201.000 236.811 C 202.320 237.023,208.170 237.741,214.000 238.405 C 225.754 239.744,241.849 241.810,245.113 242.397 C 246.894 242.718,247.552 242.650,249.292 241.964 C 267.600 234.747,294.422 240.742,301.690 253.675 C 303.211 256.382,304.402 254.461,304.396 249.313 C 304.380 236.070,283.345 229.571,214.759 221.616 C 209.127 220.963,203.805 220.314,202.932 220.175 L 201.345 219.921 200.855 222.109 C 197.350 237.772,173.916 235.354,173.470 219.284 C 173.410 217.120,173.288 216.745,172.600 216.601 C 172.160 216.510,168.740 216.055,165.000 215.590 C 146.749 213.323,135.200 211.323,135.200 210.431 C 135.200 210.244,136.685 209.881,138.500 209.622 C 140.315 209.364,145.569 208.525,150.176 207.758 C 169.225 204.586,181.477 202.875,204.291 200.200 C 230.114 197.171,235.520 196.429,254.200 193.348 C 280.429 189.022,293.611 184.597,297.422 178.838 L 298.460 177.270 297.441 173.440 C 293.534 158.762,284.425 154.611,253.000 153.189 C 243.315 152.751,212.175 152.423,203.500 152.667 M82.914 183.800 C 82.917 184.900,82.995 185.303,83.087 184.695 C 83.179 184.086,83.177 183.186,83.082 182.695 C 82.987 182.203,82.911 182.700,82.914 183.800 M224.000 258.237 C 223.670 258.316,217.910 259.027,211.200 259.816 C 162.393 265.556,136.823 270.980,127.893 277.488 C 125.100 279.524,125.123 279.410,125.818 287.672 L 126.435 295.000 127.701 296.099 C 133.057 300.747,146.536 304.761,169.600 308.577 C 187.625 311.559,193.018 312.312,212.800 314.607 C 226.778 316.229,240.397 317.913,242.304 318.256 L 243.608 318.491 245.359 314.745 C 248.179 308.717,248.559 305.784,246.878 303.018 C 246.038 301.634,247.814 301.913,215.000 298.015 C 184.809 294.429,152.693 289.323,149.663 287.628 C 147.793 286.581,170.367 282.303,195.200 278.998 C 204.863 277.712,221.991 275.604,222.800 275.601 C 223.289 275.600,223.403 274.914,223.415 271.900 C 223.431 267.672,224.069 265.343,226.427 260.900 L 227.967 258.000 226.283 258.046 C 225.358 258.072,224.330 258.158,224.000 258.237 M303.042 318.300 C 302.895 319.565,301.713 323.750,300.416 327.600 C 297.658 335.782,297.194 339.077,298.826 338.887 C 300.378 338.707,304.900 335.815,306.724 333.836 L 308.400 332.018 308.400 327.035 C 308.400 321.202,308.171 320.429,305.692 317.900 C 303.362 315.523,303.366 315.522,303.042 318.300 M81.100 317.489 C 81.815 317.578,82.985 317.578,83.700 317.489 C 84.415 317.401,83.830 317.328,82.400 317.328 C 80.970 317.328,80.385 317.401,81.100 317.489 M236.400 334.270 C 234.656 334.552,220.705 336.324,205.400 338.209 C 162.827 343.450,137.313 349.336,132.355 355.061 C 131.523 356.022,133.064 373.402,134.038 374.050 C 144.301 380.870,168.262 385.792,221.400 391.996 C 227.120 392.664,233.690 393.472,236.000 393.792 C 241.846 394.603,242.000 394.593,242.000 393.427 C 242.000 391.851,244.266 383.526,245.381 381.004 C 245.947 379.724,246.309 378.576,246.186 378.452 C 245.878 378.145,238.623 377.183,220.200 375.006 C 190.412 371.487,175.986 369.307,160.300 365.952 C 157.055 365.258,154.400 364.557,154.400 364.394 C 154.400 362.792,185.594 357.633,221.000 353.380 C 246.741 350.288,244.068 351.190,242.268 346.200 C 241.072 342.884,240.000 337.881,240.000 335.617 C 240.000 333.879,239.646 333.746,236.400 334.270 M303.396 390.900 C 302.395 393.699,300.400 399.614,300.400 399.783 C 300.400 399.903,302.740 400.000,305.600 400.000 L 310.800 400.000 310.800 397.441 C 310.800 394.517,309.889 393.370,305.999 391.399 C 303.725 390.247,303.636 390.230,303.396 390.900 " stroke="none" fill="#fbf1f6" fill-rule="evenodd"></path><path id="path3" d="M193.300 130.697 C 195.005 130.772,197.795 130.772,199.500 130.697 C 201.205 130.622,199.810 130.561,196.400 130.561 C 192.990 130.561,191.595 130.622,193.300 130.697 M227.320 130.698 C 229.255 130.772,232.315 130.771,234.120 130.697 C 235.924 130.623,234.340 130.563,230.600 130.564 C 226.860 130.564,225.384 130.625,227.320 130.698 M181.111 131.093 C 182.051 131.178,183.491 131.177,184.311 131.091 C 185.130 131.005,184.360 130.936,182.600 130.937 C 180.840 130.939,180.170 131.009,181.111 131.093 M244.112 131.095 C 245.164 131.177,246.784 131.176,247.712 131.092 C 248.640 131.008,247.780 130.941,245.800 130.942 C 243.820 130.943,243.060 131.012,244.112 131.095 M172.700 131.489 C 173.415 131.578,174.585 131.578,175.300 131.489 C 176.015 131.401,175.430 131.328,174.000 131.328 C 172.570 131.328,171.985 131.401,172.700 131.489 M254.311 131.493 C 255.251 131.578,256.691 131.577,257.511 131.491 C 258.330 131.405,257.560 131.336,255.800 131.337 C 254.040 131.339,253.370 131.409,254.311 131.493 M166.100 131.887 C 166.705 131.978,167.695 131.978,168.300 131.887 C 168.905 131.795,168.410 131.720,167.200 131.720 C 165.990 131.720,165.495 131.795,166.100 131.887 M262.291 131.889 C 263.001 131.977,264.261 131.979,265.091 131.892 C 265.921 131.805,265.340 131.733,263.800 131.731 C 262.260 131.729,261.581 131.800,262.291 131.889 M160.700 132.282 C 161.195 132.378,162.005 132.378,162.500 132.282 C 162.995 132.187,162.590 132.109,161.600 132.109 C 160.610 132.109,160.205 132.187,160.700 132.282 M270.105 132.287 C 270.714 132.379,271.614 132.377,272.105 132.282 C 272.597 132.187,272.100 132.111,271.000 132.114 C 269.900 132.117,269.497 132.195,270.105 132.287 M155.905 132.683 C 156.402 132.779,157.122 132.775,157.505 132.675 C 157.887 132.575,157.480 132.496,156.600 132.501 C 155.720 132.505,155.407 132.587,155.905 132.683 M151.505 133.083 C 152.002 133.179,152.722 133.175,153.105 133.075 C 153.487 132.975,153.080 132.896,152.200 132.901 C 151.320 132.905,151.007 132.987,151.505 133.083 M147.700 133.476 C 148.085 133.576,148.715 133.576,149.100 133.476 C 149.485 133.375,149.170 133.293,148.400 133.293 C 147.630 133.293,147.315 133.375,147.700 133.476 M144.100 133.876 C 144.485 133.976,145.115 133.976,145.500 133.876 C 145.885 133.775,145.570 133.693,144.800 133.693 C 144.030 133.693,143.715 133.775,144.100 133.876 M289.233 136.149 C 289.645 136.517,292.000 137.600,292.000 137.421 C 292.000 137.190,289.782 136.000,289.353 136.000 C 289.196 136.000,289.142 136.067,289.233 136.149 M297.800 142.000 C 298.659 142.880,299.452 143.600,299.562 143.600 C 299.672 143.600,299.059 142.880,298.200 142.000 C 297.341 141.120,296.548 140.400,296.438 140.400 C 296.328 140.400,296.941 141.120,297.800 142.000 M104.700 142.226 C 103.655 142.770,102.800 143.305,102.800 143.414 C 102.800 143.593,106.760 141.723,107.167 141.352 C 107.662 140.901,106.361 141.362,104.700 142.226 M97.387 147.700 L 95.000 150.200 97.500 147.813 C 99.822 145.595,100.183 145.200,99.887 145.200 C 99.826 145.200,98.701 146.325,97.387 147.700 M302.881 149.391 C 303.359 150.376,303.819 151.114,303.903 151.030 C 304.084 150.849,302.468 147.600,302.197 147.600 C 302.094 147.600,302.402 148.406,302.881 149.391 M193.600 153.070 C 175.310 153.937,147.586 156.843,138.682 158.826 C 126.866 161.458,121.151 165.858,118.971 174.000 C 117.945 177.832,118.230 196.020,119.434 203.531 L 119.648 204.861 120.724 203.783 C 125.929 198.566,140.533 193.366,161.000 189.442 C 173.057 187.131,175.131 186.771,182.875 185.642 C 190.738 184.495,196.406 183.777,218.000 181.188 C 223.610 180.516,229.820 179.707,231.800 179.391 C 233.780 179.075,239.630 178.173,244.800 177.386 C 253.749 176.024,267.970 173.335,271.400 172.355 L 273.000 171.898 271.200 171.353 C 264.225 169.241,236.755 164.864,212.400 161.985 C 202.121 160.769,199.763 159.634,198.068 155.086 C 197.641 153.939,197.046 152.988,196.746 152.974 C 196.446 152.959,195.030 153.003,193.600 153.070 M90.154 168.800 C 90.154 171.550,90.218 172.675,90.296 171.300 C 90.374 169.925,90.374 167.675,90.296 166.300 C 90.218 164.925,90.154 166.050,90.154 168.800 M90.531 178.600 C 90.533 180.140,90.605 180.721,90.692 179.891 C 90.779 179.061,90.777 177.801,90.689 177.091 C 90.600 176.381,90.529 177.060,90.531 178.600 M297.481 179.171 C 292.753 187.174,266.784 193.095,204.400 200.393 C 181.928 203.022,176.452 203.784,150.800 207.846 C 135.942 210.199,135.370 210.303,135.673 210.606 C 136.111 211.044,146.083 212.812,154.800 213.997 C 159.970 214.700,166.405 215.580,169.100 215.951 C 173.982 216.625,174.000 216.624,174.009 215.814 C 174.037 213.242,177.650 208.596,180.905 206.947 C 189.567 202.557,199.830 207.898,201.019 217.412 C 201.244 219.217,201.445 219.640,202.147 219.785 C 203.184 219.999,206.350 220.394,221.500 222.199 C 275.159 228.590,296.862 234.266,303.330 243.600 C 304.003 244.572,304.017 244.493,303.805 240.800 C 303.133 229.103,300.954 201.208,299.805 189.600 C 298.601 177.438,298.575 177.319,297.481 179.171 M90.931 186.200 C 90.933 187.740,91.005 188.321,91.092 187.491 C 91.179 186.661,91.177 185.401,91.089 184.691 C 91.000 183.981,90.929 184.660,90.931 186.200 M311.693 192.000 C 311.693 192.770,311.775 193.085,311.876 192.700 C 311.976 192.315,311.976 191.685,311.876 191.300 C 311.775 190.915,311.693 191.230,311.693 192.000 M91.331 193.800 C 91.333 195.340,91.405 195.921,91.492 195.091 C 91.579 194.261,91.577 193.001,91.489 192.291 C 91.400 191.581,91.329 192.260,91.331 193.800 M312.493 198.800 C 312.493 199.570,312.575 199.885,312.676 199.500 C 312.776 199.115,312.776 198.485,312.676 198.100 C 312.575 197.715,312.493 198.030,312.493 198.800 M91.724 201.000 C 91.726 202.320,91.801 202.812,91.890 202.093 C 91.979 201.374,91.977 200.294,91.886 199.693 C 91.795 199.092,91.722 199.680,91.724 201.000 M312.893 202.400 C 312.893 203.170,312.975 203.485,313.076 203.100 C 313.176 202.715,313.176 202.085,313.076 201.700 C 312.975 201.315,312.893 201.630,312.893 202.400 M313.293 206.000 C 313.293 206.770,313.375 207.085,313.476 206.700 C 313.576 206.315,313.576 205.685,313.476 205.300 C 313.375 204.915,313.293 205.230,313.293 206.000 M92.124 207.800 C 92.126 209.120,92.201 209.612,92.290 208.893 C 92.379 208.174,92.377 207.094,92.286 206.493 C 92.195 205.892,92.122 206.480,92.124 207.800 M313.693 209.600 C 313.693 210.370,313.775 210.685,313.876 210.300 C 313.976 209.915,313.976 209.285,313.876 208.900 C 313.775 208.515,313.693 208.830,313.693 209.600 M92.520 214.000 C 92.520 215.210,92.595 215.705,92.687 215.100 C 92.778 214.495,92.778 213.505,92.687 212.900 C 92.595 212.295,92.520 212.790,92.520 214.000 M314.101 213.800 C 314.105 214.680,314.187 214.993,314.283 214.495 C 314.379 213.998,314.375 213.278,314.275 212.895 C 314.175 212.513,314.096 212.920,314.101 213.800 M120.401 217.106 C 120.402 218.518,124.699 274.722,125.020 277.522 L 125.263 279.644 126.998 278.045 C 133.095 272.425,152.627 267.362,185.000 263.011 C 189.180 262.450,193.590 261.817,194.800 261.606 C 196.010 261.396,204.110 260.390,212.800 259.373 L 228.600 257.523 229.587 256.261 C 233.349 251.454,238.655 247.208,244.712 244.157 C 246.190 243.412,247.220 242.800,247.000 242.798 C 246.780 242.795,242.730 242.263,238.000 241.616 C 233.270 240.969,223.910 239.794,217.200 239.005 C 161.773 232.486,133.692 226.143,122.500 217.613 L 120.400 216.012 120.401 217.106 M314.501 218.200 C 314.505 219.080,314.587 219.393,314.683 218.895 C 314.779 218.398,314.775 217.678,314.675 217.295 C 314.575 216.913,314.496 217.320,314.501 218.200 M92.920 220.000 C 92.920 221.210,92.995 221.705,93.087 221.100 C 93.178 220.495,93.178 219.505,93.087 218.900 C 92.995 218.295,92.920 218.790,92.920 220.000 M314.901 222.600 C 314.905 223.480,314.987 223.793,315.083 223.295 C 315.179 222.798,315.175 222.078,315.075 221.695 C 314.975 221.313,314.896 221.720,314.901 222.600 M93.309 225.600 C 93.309 226.590,93.387 226.995,93.482 226.500 C 93.578 226.005,93.578 225.195,93.482 224.700 C 93.387 224.205,93.309 224.610,93.309 225.600 M315.309 226.800 C 315.309 227.790,315.387 228.195,315.482 227.700 C 315.578 227.205,315.578 226.395,315.482 225.900 C 315.387 225.405,315.309 225.810,315.309 226.800 M93.709 230.800 C 93.709 231.790,93.787 232.195,93.882 231.700 C 93.978 231.205,93.978 230.395,93.882 229.900 C 93.787 229.405,93.709 229.810,93.709 230.800 M315.709 231.600 C 315.709 232.590,315.787 232.995,315.882 232.500 C 315.978 232.005,315.978 231.195,315.882 230.700 C 315.787 230.205,315.709 230.610,315.709 231.600 M186.307 232.690 C 187.026 232.779,188.106 232.777,188.707 232.686 C 189.308 232.595,188.720 232.522,187.400 232.524 C 186.080 232.526,185.588 232.601,186.307 232.690 M94.114 235.800 C 94.117 236.900,94.195 237.303,94.287 236.695 C 94.379 236.086,94.377 235.186,94.282 234.695 C 94.187 234.203,94.111 234.700,94.114 235.800 M316.114 236.600 C 316.117 237.700,316.195 238.103,316.287 237.495 C 316.379 236.886,316.377 235.986,316.282 235.495 C 316.187 235.003,316.111 235.500,316.114 236.600 M263.500 239.082 C 263.995 239.178,264.805 239.178,265.300 239.082 C 265.795 238.987,265.390 238.909,264.400 238.909 C 263.410 238.909,263.005 238.987,263.500 239.082 M269.705 239.087 C 270.314 239.179,271.214 239.177,271.705 239.082 C 272.197 238.987,271.700 238.911,270.600 238.914 C 269.500 238.917,269.097 238.995,269.705 239.087 M94.509 240.800 C 94.509 241.790,94.587 242.195,94.682 241.700 C 94.778 241.205,94.778 240.395,94.682 239.900 C 94.587 239.405,94.509 239.810,94.509 240.800 M316.509 241.600 C 316.509 242.590,316.587 242.995,316.682 242.500 C 316.778 242.005,316.778 241.195,316.682 240.700 C 316.587 240.205,316.509 240.610,316.509 241.600 M94.914 245.800 C 94.917 246.900,94.995 247.303,95.087 246.695 C 95.179 246.086,95.177 245.186,95.082 244.695 C 94.987 244.203,94.911 244.700,94.914 245.800 M316.920 246.800 C 316.920 248.010,316.995 248.505,317.087 247.900 C 317.178 247.295,317.178 246.305,317.087 245.700 C 316.995 245.095,316.920 245.590,316.920 246.800 M297.200 248.525 C 297.200 248.594,297.785 249.179,298.500 249.825 L 299.800 251.000 298.625 249.700 C 297.530 248.488,297.200 248.216,297.200 248.525 M80.700 249.089 C 81.415 249.178,82.585 249.178,83.300 249.089 C 84.015 249.001,83.430 248.928,82.000 248.928 C 80.570 248.928,79.985 249.001,80.700 249.089 M90.305 250.283 C 90.802 250.379,91.522 250.375,91.905 250.275 C 92.287 250.175,91.880 250.096,91.000 250.101 C 90.120 250.105,89.807 250.187,90.305 250.283 M317.320 252.400 C 317.320 253.610,317.395 254.105,317.487 253.500 C 317.578 252.895,317.578 251.905,317.487 251.300 C 317.395 250.695,317.320 251.190,317.320 252.400 M303.831 254.217 C 303.691 254.777,303.326 255.330,303.021 255.447 C 302.553 255.627,302.562 255.889,303.076 257.121 C 306.407 265.092,302.510 274.519,293.695 279.813 C 293.372 280.008,295.934 287.614,298.170 293.096 C 301.926 302.307,302.837 305.673,303.094 311.290 C 303.278 315.314,303.410 316.013,304.018 316.206 C 304.407 316.329,305.488 317.257,306.419 318.267 L 308.113 320.104 307.833 314.152 C 306.194 279.280,304.713 253.200,304.372 253.200 C 304.215 253.200,303.972 253.658,303.831 254.217 M63.585 255.229 L 62.200 256.458 63.700 255.381 C 65.026 254.430,65.457 254.000,65.085 254.000 C 65.022 254.000,64.347 254.553,63.585 255.229 M60.181 258.100 L 58.600 259.800 60.300 258.219 C 61.881 256.748,62.184 256.400,61.881 256.400 C 61.816 256.400,61.051 257.165,60.181 258.100 M317.720 258.400 C 317.720 259.610,317.795 260.105,317.887 259.500 C 317.978 258.895,317.978 257.905,317.887 257.300 C 317.795 256.695,317.720 257.190,317.720 258.400 M262.500 258.676 C 262.885 258.776,263.515 258.776,263.900 258.676 C 264.285 258.575,263.970 258.493,263.200 258.493 C 262.430 258.493,262.115 258.575,262.500 258.676 M57.923 260.700 C 57.218 261.521,56.690 262.400,56.901 262.400 C 56.983 262.400,57.449 261.860,57.937 261.200 C 58.901 259.896,58.892 259.572,57.923 260.700 M318.124 264.600 C 318.126 265.920,318.201 266.412,318.290 265.693 C 318.379 264.974,318.377 263.894,318.286 263.293 C 318.195 262.692,318.122 263.280,318.124 264.600 M54.780 265.639 C 54.320 266.540,54.013 267.346,54.097 267.430 C 54.181 267.514,54.641 266.776,55.119 265.791 C 56.209 263.547,55.915 263.415,54.780 265.639 M244.581 268.037 C 244.229 268.718,244.012 269.345,244.099 269.432 C 244.186 269.519,244.556 268.962,244.922 268.195 C 245.744 266.470,245.459 266.338,244.581 268.037 M69.052 267.516 C 68.944 267.690,69.518 267.770,70.328 267.693 C 72.802 267.459,73.093 267.295,71.124 267.246 C 70.092 267.221,69.159 267.342,69.052 267.516 M318.524 271.000 C 318.526 272.320,318.601 272.812,318.690 272.093 C 318.779 271.374,318.777 270.294,318.686 269.693 C 318.595 269.092,318.522 269.680,318.524 271.000 M78.400 269.620 C 79.787 270.561,80.578 270.835,79.600 270.036 C 79.050 269.586,78.420 269.217,78.200 269.215 C 77.980 269.213,78.070 269.396,78.400 269.620 M66.893 271.200 C 66.893 271.970,66.975 272.285,67.076 271.900 C 67.176 271.515,67.176 270.885,67.076 270.500 C 66.975 270.115,66.893 270.430,66.893 271.200 M223.309 272.000 C 223.309 272.990,223.387 273.395,223.482 272.900 C 223.578 272.405,223.578 271.595,223.482 271.100 C 223.387 270.605,223.309 271.010,223.309 272.000 M286.128 274.000 C 286.128 275.430,286.201 276.015,286.289 275.300 C 286.378 274.585,286.378 273.415,286.289 272.700 C 286.201 271.985,286.128 272.570,286.128 274.000 M83.800 273.600 C 84.659 274.480,85.452 275.200,85.562 275.200 C 85.672 275.200,85.059 274.480,84.200 273.600 C 83.341 272.720,82.548 272.000,82.438 272.000 C 82.328 272.000,82.941 272.720,83.800 273.600 M242.937 276.200 C 242.939 277.960,243.009 278.630,243.093 277.689 C 243.178 276.749,243.177 275.309,243.091 274.489 C 243.005 273.670,242.936 274.440,242.937 276.200 M68.976 274.570 C 69.404 274.917,70.124 275.185,70.576 275.166 C 71.237 275.138,71.189 275.067,70.331 274.809 C 69.744 274.631,69.024 274.363,68.731 274.213 C 68.439 274.063,68.549 274.224,68.976 274.570 M223.555 275.162 C 223.410 275.577,220.915 276.013,213.979 276.836 C 183.722 280.423,148.502 286.236,149.710 287.443 C 151.154 288.888,188.856 294.818,216.800 297.996 C 222.850 298.684,231.839 299.773,236.775 300.416 C 246.389 301.667,246.559 301.664,245.325 300.298 C 243.835 298.648,241.326 294.637,239.468 290.937 C 237.646 287.307,237.610 287.268,235.515 286.582 C 229.107 284.484,225.035 280.683,224.014 275.847 C 223.868 275.154,223.664 274.850,223.555 275.162 M318.931 277.800 C 318.933 279.340,319.005 279.921,319.092 279.091 C 319.179 278.261,319.177 277.001,319.089 276.291 C 319.000 275.581,318.929 276.260,318.931 277.800 M51.746 279.400 C 51.747 281.600,51.814 282.449,51.895 281.287 C 51.976 280.124,51.976 278.324,51.893 277.287 C 51.811 276.249,51.745 277.200,51.746 279.400 M87.478 278.595 C 87.844 279.362,88.214 279.919,88.301 279.832 C 88.484 279.649,87.270 277.200,86.996 277.200 C 86.895 277.200,87.112 277.828,87.478 278.595 M319.331 285.000 C 319.333 286.540,319.405 287.121,319.492 286.291 C 319.579 285.461,319.577 284.201,319.489 283.491 C 319.400 282.781,319.329 283.460,319.331 285.000 M90.128 288.400 C 90.128 289.830,90.201 290.415,90.289 289.700 C 90.378 288.985,90.378 287.815,90.289 287.100 C 90.201 286.385,90.128 286.970,90.128 288.400 M82.514 289.400 C 82.517 290.500,82.595 290.903,82.687 290.295 C 82.779 289.686,82.777 288.786,82.682 288.295 C 82.587 287.803,82.511 288.300,82.514 289.400 M319.728 292.000 C 319.728 293.430,319.801 294.015,319.889 293.300 C 319.978 292.585,319.978 291.415,319.889 290.700 C 319.801 289.985,319.728 290.570,319.728 292.000 M83.688 292.613 C 84.286 293.243,84.847 293.677,84.935 293.579 C 85.023 293.480,84.533 292.965,83.847 292.434 L 82.600 291.469 83.688 292.613 M56.061 295.223 C 56.562 296.115,57.217 297.048,57.515 297.296 C 57.813 297.543,57.478 296.813,56.769 295.673 C 55.241 293.214,54.760 292.909,56.061 295.223 M126.593 297.500 C 126.715 298.545,127.448 306.870,128.221 316.000 C 128.995 325.130,130.072 337.415,130.614 343.299 C 131.156 349.184,131.600 354.290,131.600 354.647 C 131.600 355.177,131.836 355.118,132.900 354.320 C 141.478 347.887,165.794 342.625,212.800 337.028 C 225.108 335.562,235.952 334.190,238.475 333.779 L 239.951 333.538 240.096 335.269 C 240.175 336.221,240.267 335.457,240.300 333.570 C 240.373 329.403,241.140 325.545,242.688 321.558 L 243.851 318.562 242.902 318.484 C 242.379 318.440,239.218 318.045,235.876 317.606 C 232.534 317.166,224.310 316.170,217.600 315.392 C 163.257 309.091,137.482 303.759,128.607 296.984 C 126.314 295.234,126.329 295.231,126.593 297.500 M320.134 299.600 C 320.134 301.250,320.205 301.925,320.291 301.100 C 320.378 300.275,320.378 298.925,320.291 298.100 C 320.205 297.275,320.134 297.950,320.134 299.600 M103.590 300.300 L 100.600 303.400 103.789 300.400 C 105.542 298.750,107.057 297.355,107.155 297.300 C 107.253 297.245,107.164 297.200,106.957 297.200 C 106.749 297.200,105.234 298.595,103.590 300.300 M60.400 300.600 C 61.817 302.030,63.067 303.200,63.177 303.200 C 63.287 303.200,62.217 302.030,60.800 300.600 C 59.383 299.170,58.133 298.000,58.023 298.000 C 57.913 298.000,58.983 299.170,60.400 300.600 M112.000 301.746 C 112.000 302.046,111.622 302.811,111.161 303.446 L 110.322 304.600 111.361 303.478 C 112.280 302.485,112.753 301.200,112.200 301.200 C 112.090 301.200,112.000 301.446,112.000 301.746 M320.537 307.800 C 320.539 309.560,320.609 310.230,320.693 309.289 C 320.778 308.349,320.777 306.909,320.691 306.089 C 320.605 305.270,320.536 306.040,320.537 307.800 M256.093 307.200 C 256.093 307.970,256.175 308.285,256.276 307.900 C 256.376 307.515,256.376 306.885,256.276 306.500 C 256.175 306.115,256.093 306.430,256.093 307.200 M106.000 308.468 C 104.952 309.420,104.701 309.765,105.400 309.295 C 106.504 308.551,108.338 306.777,107.962 306.817 C 107.873 306.826,106.990 307.570,106.000 308.468 M79.913 309.495 C 81.076 309.576,82.876 309.576,83.913 309.493 C 84.951 309.411,84.000 309.345,81.800 309.346 C 79.600 309.347,78.751 309.414,79.913 309.495 M296.131 312.200 C 296.133 313.740,296.205 314.321,296.292 313.491 C 296.379 312.661,296.377 311.401,296.289 310.691 C 296.200 309.981,296.129 310.660,296.131 312.200 M99.756 312.971 C 99.635 313.285,99.604 313.960,99.686 314.471 C 99.795 315.154,99.888 315.004,100.037 313.900 C 100.247 312.347,100.136 311.981,99.756 312.971 M320.940 316.400 C 320.940 318.270,321.009 319.035,321.093 318.100 C 321.177 317.165,321.177 315.635,321.093 314.700 C 321.009 313.765,320.940 314.530,320.940 316.400 M253.265 316.617 C 252.595 318.088,252.723 318.402,253.447 317.065 C 253.786 316.440,253.988 315.854,253.896 315.763 C 253.805 315.671,253.521 316.056,253.265 316.617 M100.114 318.600 C 100.117 319.700,100.195 320.103,100.287 319.495 C 100.379 318.886,100.377 317.986,100.282 317.495 C 100.187 317.003,100.111 317.500,100.114 318.600 M100.509 323.600 C 100.509 324.590,100.587 324.995,100.682 324.500 C 100.778 324.005,100.778 323.195,100.682 322.700 C 100.587 322.205,100.509 322.610,100.509 323.600 M321.340 325.600 C 321.340 327.470,321.409 328.235,321.493 327.300 C 321.577 326.365,321.577 324.835,321.493 323.900 C 321.409 322.965,321.340 323.730,321.340 325.600 M100.909 328.400 C 100.909 329.390,100.987 329.795,101.082 329.300 C 101.178 328.805,101.178 327.995,101.082 327.500 C 100.987 327.005,100.909 327.410,100.909 328.400 M248.101 332.200 C 248.105 333.080,248.187 333.393,248.283 332.895 C 248.379 332.398,248.375 331.678,248.275 331.295 C 248.175 330.913,248.096 331.320,248.101 332.200 M101.314 333.000 C 101.317 334.100,101.395 334.503,101.487 333.895 C 101.579 333.286,101.577 332.386,101.482 331.895 C 101.387 331.403,101.311 331.900,101.314 333.000 M321.748 336.000 C 321.748 338.310,321.814 339.255,321.895 338.100 C 321.976 336.945,321.976 335.055,321.895 333.900 C 321.814 332.745,321.748 333.690,321.748 336.000 M306.005 334.683 C 304.537 336.148,302.780 337.358,300.701 338.336 L 297.592 339.800 297.838 341.400 C 298.171 343.560,299.107 346.065,301.800 352.000 C 307.038 363.547,307.762 373.817,304.260 386.906 C 303.744 388.834,303.407 390.326,303.511 390.223 C 303.758 389.976,306.555 391.405,308.700 392.874 L 310.400 394.038 310.392 388.519 C 310.379 378.956,308.750 332.382,308.431 332.447 C 308.304 332.473,307.212 333.479,306.005 334.683 M290.493 336.400 C 290.493 337.170,290.575 337.485,290.676 337.100 C 290.776 336.715,290.776 336.085,290.676 335.700 C 290.575 335.315,290.493 335.630,290.493 336.400 M101.709 337.600 C 101.709 338.590,101.787 338.995,101.882 338.500 C 101.978 338.005,101.978 337.195,101.882 336.700 C 101.787 336.205,101.709 336.610,101.709 337.600 M248.093 337.600 C 248.093 338.370,248.175 338.685,248.276 338.300 C 248.376 337.915,248.376 337.285,248.276 336.900 C 248.175 336.515,248.093 336.830,248.093 337.600 M102.101 342.200 C 102.105 343.080,102.187 343.393,102.283 342.895 C 102.379 342.398,102.375 341.678,102.275 341.295 C 102.175 340.913,102.096 341.320,102.101 342.200 M322.153 347.800 C 322.153 350.440,322.218 351.468,322.297 350.084 C 322.375 348.701,322.374 346.541,322.295 345.284 C 322.216 344.028,322.152 345.160,322.153 347.800 M102.501 346.600 C 102.505 347.480,102.587 347.793,102.683 347.295 C 102.779 346.798,102.775 346.078,102.675 345.695 C 102.575 345.313,102.496 345.720,102.501 346.600 M102.909 350.800 C 102.909 351.790,102.987 352.195,103.082 351.700 C 103.178 351.205,103.178 350.395,103.082 349.900 C 102.987 349.405,102.909 349.810,102.909 350.800 M237.978 351.482 C 234.580 351.967,225.590 353.100,218.000 354.000 C 192.522 357.020,176.123 359.536,161.600 362.652 C 154.072 364.267,154.230 364.205,156.213 364.752 C 166.567 367.611,192.206 371.583,222.400 375.006 C 235.512 376.493,246.165 378.026,246.439 378.466 C 246.817 379.073,248.764 372.717,249.233 369.344 C 249.949 364.196,249.268 360.879,246.244 354.800 L 244.155 350.600 237.978 351.482 M103.309 355.200 C 103.309 356.190,103.387 356.595,103.482 356.100 C 103.578 355.605,103.578 354.795,103.482 354.300 C 103.387 353.805,103.309 354.210,103.309 355.200 M322.559 362.000 C 322.559 365.190,322.621 366.495,322.697 364.900 C 322.773 363.305,322.773 360.695,322.697 359.100 C 322.621 357.505,322.559 358.810,322.559 362.000 M103.701 359.400 C 103.705 360.280,103.787 360.593,103.883 360.095 C 103.979 359.598,103.975 358.878,103.875 358.495 C 103.775 358.113,103.696 358.520,103.701 359.400 M330.893 360.000 C 330.893 360.770,330.975 361.085,331.076 360.700 C 331.176 360.315,331.176 359.685,331.076 359.300 C 330.975 358.915,330.893 359.230,330.893 360.000 M104.101 363.400 C 104.105 364.280,104.187 364.593,104.283 364.095 C 104.379 363.598,104.375 362.878,104.275 362.495 C 104.175 362.113,104.096 362.520,104.101 363.400 M256.901 363.800 C 256.905 364.680,256.987 364.993,257.083 364.495 C 257.179 363.998,257.175 363.278,257.075 362.895 C 256.975 362.513,256.896 362.920,256.901 363.800 M104.509 367.600 C 104.509 368.590,104.587 368.995,104.682 368.500 C 104.778 368.005,104.778 367.195,104.682 366.700 C 104.587 366.205,104.509 366.610,104.509 367.600 M299.340 370.800 C 299.340 372.670,299.409 373.435,299.493 372.500 C 299.577 371.565,299.577 370.035,299.493 369.100 C 299.409 368.165,299.340 368.930,299.340 370.800 M256.901 370.200 C 256.905 371.080,256.987 371.393,257.083 370.895 C 257.179 370.398,257.175 369.678,257.075 369.295 C 256.975 368.913,256.896 369.320,256.901 370.200 M104.909 371.600 C 104.909 372.590,104.987 372.995,105.082 372.500 C 105.178 372.005,105.178 371.195,105.082 370.700 C 104.987 370.205,104.909 370.610,104.909 371.600 M322.978 385.600 C 322.978 392.310,323.032 395.055,323.099 391.700 C 323.166 388.345,323.166 382.855,323.099 379.500 C 323.032 376.145,322.978 378.890,322.978 385.600 M133.600 374.773 C 133.600 375.169,134.144 380.603,134.809 386.847 C 135.474 393.091,136.053 398.605,136.096 399.100 L 136.174 400.000 188.887 400.000 L 241.600 400.000 241.600 398.450 C 241.600 397.597,241.718 396.310,241.862 395.588 C 242.024 394.780,241.976 394.368,241.738 394.515 C 241.525 394.646,238.752 394.403,235.576 393.974 C 232.399 393.546,224.400 392.563,217.800 391.791 C 171.874 386.416,145.960 381.275,136.276 375.616 C 134.009 374.291,133.600 374.162,133.600 374.773 M105.301 375.800 C 105.305 376.680,105.387 376.993,105.483 376.495 C 105.579 375.998,105.575 375.278,105.475 374.895 C 105.375 374.513,105.296 374.920,105.301 375.800 M331.331 379.800 C 331.333 381.340,331.405 381.921,331.492 381.091 C 331.579 380.261,331.577 379.001,331.489 378.291 C 331.400 377.581,331.329 378.260,331.331 379.800 M105.701 379.800 C 105.705 380.680,105.787 380.993,105.883 380.495 C 105.979 379.998,105.975 379.278,105.875 378.895 C 105.775 378.513,105.696 378.920,105.701 379.800 M106.101 383.800 C 106.105 384.680,106.187 384.993,106.283 384.495 C 106.379 383.998,106.375 383.278,106.275 382.895 C 106.175 382.513,106.096 382.920,106.101 383.800 M106.509 387.600 C 106.509 388.590,106.587 388.995,106.682 388.500 C 106.778 388.005,106.778 387.195,106.682 386.700 C 106.587 386.205,106.509 386.610,106.509 387.600 M106.901 391.800 C 106.905 392.680,106.987 392.993,107.083 392.495 C 107.179 391.998,107.175 391.278,107.075 390.895 C 106.975 390.513,106.896 390.920,106.901 391.800 M107.293 395.600 C 107.293 396.370,107.375 396.685,107.476 396.300 C 107.576 395.915,107.576 395.285,107.476 394.900 C 107.375 394.515,107.293 394.830,107.293 395.600 M249.301 398.600 C 249.305 399.480,249.387 399.793,249.483 399.295 C 249.579 398.798,249.575 398.078,249.475 397.695 C 249.375 397.313,249.296 397.720,249.301 398.600 " stroke="none" fill="#d38b7b" fill-rule="evenodd"></path><path id="path4" d="M275.392 261.657 C 269.562 269.744,269.759 282.975,275.866 293.400 C 282.513 304.747,282.792 308.840,277.717 320.600 C 272.463 332.778,272.652 338.020,278.806 350.800 C 284.415 362.449,284.871 371.290,280.368 381.102 C 278.167 385.898,276.334 392.467,275.791 397.500 L 275.521 400.000 283.742 400.000 L 291.963 400.000 292.807 398.100 C 300.784 380.147,301.210 367.403,294.352 351.946 C 289.501 341.012,289.271 336.356,293.071 326.031 C 297.451 314.132,297.190 308.773,291.554 294.841 C 285.943 280.970,285.034 275.084,287.078 265.850 C 287.792 262.626,288.060 262.951,283.200 261.167 C 277.575 259.102,277.218 259.124,275.392 261.657 " stroke="none" fill="#85fbc2" fill-rule="evenodd"></path><path id="path5" d="M263.600 258.659 C 248.408 260.941,243.375 265.315,243.420 276.200 C 243.448 283.121,245.567 288.330,251.625 296.369 C 257.591 304.286,257.692 307.421,252.371 319.433 C 246.673 332.296,246.771 338.716,252.855 351.190 C 258.331 362.418,258.679 370.723,254.122 381.400 C 251.515 387.507,249.600 394.721,249.600 398.435 L 249.600 400.000 255.800 400.000 L 262.000 400.000 262.000 398.652 C 262.000 394.739,263.726 388.047,266.295 382.000 C 271.030 370.854,270.804 362.826,265.437 351.601 C 258.935 338.001,258.942 332.468,265.484 317.600 C 269.734 307.940,269.652 303.922,265.085 297.938 C 253.636 282.939,253.597 265.240,265.000 259.438 C 267.082 258.379,266.739 258.188,263.600 258.659 " stroke="none" fill="#ffa4d4" fill-rule="evenodd"></path><path id="path6" d="M82.101 168.600 C 82.105 169.480,82.187 169.793,82.283 169.295 C 82.379 168.798,82.375 168.078,82.275 167.695 C 82.175 167.313,82.096 167.720,82.101 168.600 M266.000 259.641 C 254.702 264.011,254.070 282.472,264.738 296.474 C 268.072 300.851,268.970 303.123,268.974 307.200 C 268.978 311.163,268.650 312.230,264.908 320.400 C 259.846 331.450,259.959 339.117,265.347 350.135 C 269.958 359.565,270.854 363.359,270.082 370.200 C 269.626 374.239,267.778 380.519,266.045 383.913 C 264.699 386.550,262.400 396.309,262.400 399.387 C 262.400 399.943,263.191 400.006,268.897 399.910 L 275.394 399.800 275.846 396.200 C 276.481 391.136,277.174 388.728,280.238 380.945 C 284.595 369.879,284.325 362.555,279.172 352.031 C 272.411 338.224,272.170 332.527,277.813 319.970 C 281.963 310.736,281.831 301.451,277.479 296.463 C 270.140 288.054,268.872 270.477,274.989 261.962 L 276.410 259.984 275.403 259.601 C 273.098 258.725,268.316 258.745,266.000 259.641 " stroke="none" fill="#ffe87f" fill-rule="evenodd"></path></g></svg>